G04*
G04 #@! TF.GenerationSoftware,Altium Limited,Altium Designer,18.1.9 (240)*
G04*
G04 Layer_Color=8388736*
%FSLAX25Y25*%
%MOIN*%
G70*
G01*
G75*
%ADD10C,0.00787*%
G36*
X224360Y196850D02*
X224050D01*
Y198816D01*
X224048Y198813D01*
X224046Y198811D01*
X224039Y198805D01*
X224031Y198798D01*
X224018Y198788D01*
X224005Y198777D01*
X223990Y198764D01*
X223973Y198749D01*
X223930Y198717D01*
X223880Y198682D01*
X223822Y198644D01*
X223758Y198603D01*
X223756Y198600D01*
X223749Y198598D01*
X223740Y198592D01*
X223727Y198585D01*
X223712Y198577D01*
X223693Y198566D01*
X223672Y198555D01*
X223650Y198542D01*
X223599Y198517D01*
X223545Y198491D01*
X223489Y198465D01*
X223435Y198444D01*
Y198742D01*
X223437Y198745D01*
X223446Y198749D01*
X223461Y198755D01*
X223478Y198764D01*
X223502Y198777D01*
X223528Y198790D01*
X223555Y198807D01*
X223588Y198826D01*
X223622Y198846D01*
X223659Y198869D01*
X223734Y198919D01*
X223809Y198975D01*
X223885Y199037D01*
X223887Y199039D01*
X223893Y199046D01*
X223904Y199054D01*
X223917Y199067D01*
X223932Y199082D01*
X223951Y199101D01*
X223971Y199121D01*
X223992Y199144D01*
X224037Y199196D01*
X224082Y199252D01*
X224125Y199312D01*
X224143Y199344D01*
X224160Y199374D01*
X224360D01*
Y196850D01*
D02*
G37*
G36*
X221732Y199405D02*
X221765Y199402D01*
X221799Y199398D01*
X221840Y199394D01*
X221883Y199385D01*
X221930Y199377D01*
X221982Y199366D01*
X222033Y199353D01*
X222087Y199338D01*
X222141Y199319D01*
X222195Y199295D01*
X222248Y199271D01*
X222302Y199241D01*
X222306Y199239D01*
X222315Y199233D01*
X222328Y199224D01*
X222347Y199211D01*
X222371Y199194D01*
X222399Y199172D01*
X222429Y199149D01*
X222461Y199121D01*
X222493Y199091D01*
X222530Y199054D01*
X222564Y199018D01*
X222599Y198975D01*
X222635Y198932D01*
X222668Y198882D01*
X222700Y198830D01*
X222728Y198777D01*
X222730Y198773D01*
X222734Y198764D01*
X222741Y198747D01*
X222751Y198725D01*
X222762Y198697D01*
X222775Y198663D01*
X222788Y198624D01*
X222803Y198581D01*
X222816Y198534D01*
X222829Y198482D01*
X222842Y198426D01*
X222852Y198368D01*
X222863Y198306D01*
X222870Y198241D01*
X222874Y198175D01*
X222876Y198106D01*
Y198102D01*
Y198093D01*
Y198076D01*
X222874Y198054D01*
Y198026D01*
X222872Y197994D01*
X222867Y197960D01*
X222865Y197921D01*
X222859Y197878D01*
X222852Y197835D01*
X222835Y197740D01*
X222814Y197644D01*
X222799Y197597D01*
X222781Y197549D01*
Y197547D01*
X222777Y197538D01*
X222771Y197526D01*
X222764Y197508D01*
X222754Y197487D01*
X222741Y197461D01*
X222728Y197433D01*
X222711Y197403D01*
X222691Y197371D01*
X222670Y197334D01*
X222648Y197300D01*
X222622Y197263D01*
X222594Y197227D01*
X222564Y197188D01*
X222532Y197151D01*
X222498Y197117D01*
X222500Y197115D01*
X222509Y197110D01*
X222521Y197102D01*
X222536Y197091D01*
X222558Y197078D01*
X222582Y197063D01*
X222607Y197046D01*
X222638Y197029D01*
X222670Y197010D01*
X222702Y196990D01*
X222775Y196951D01*
X222848Y196915D01*
X222923Y196885D01*
X222825Y196657D01*
X222822Y196659D01*
X222812Y196661D01*
X222799Y196668D01*
X222779Y196676D01*
X222754Y196685D01*
X222726Y196698D01*
X222693Y196713D01*
X222657Y196732D01*
X222618Y196751D01*
X222575Y196773D01*
X222530Y196799D01*
X222485Y196827D01*
X222438Y196857D01*
X222388Y196889D01*
X222337Y196923D01*
X222287Y196962D01*
X222285Y196960D01*
X222274Y196956D01*
X222259Y196947D01*
X222238Y196939D01*
X222212Y196926D01*
X222182Y196913D01*
X222145Y196900D01*
X222104Y196885D01*
X222061Y196870D01*
X222014Y196857D01*
X221962Y196844D01*
X221909Y196831D01*
X221851Y196823D01*
X221793Y196814D01*
X221730Y196809D01*
X221668Y196807D01*
X221653D01*
X221636Y196809D01*
X221610D01*
X221580Y196812D01*
X221545Y196816D01*
X221507Y196820D01*
X221464Y196829D01*
X221416Y196837D01*
X221367Y196848D01*
X221315Y196861D01*
X221264Y196876D01*
X221210Y196896D01*
X221156Y196917D01*
X221102Y196943D01*
X221049Y196971D01*
X221046Y196973D01*
X221036Y196979D01*
X221023Y196988D01*
X221004Y197001D01*
X220980Y197018D01*
X220954Y197040D01*
X220924Y197063D01*
X220892Y197091D01*
X220857Y197121D01*
X220823Y197156D01*
X220786Y197194D01*
X220752Y197235D01*
X220715Y197280D01*
X220683Y197328D01*
X220651Y197379D01*
X220621Y197433D01*
X220619Y197437D01*
X220614Y197446D01*
X220608Y197463D01*
X220597Y197485D01*
X220586Y197515D01*
X220573Y197547D01*
X220561Y197586D01*
X220548Y197629D01*
X220533Y197676D01*
X220520Y197730D01*
X220507Y197784D01*
X220496Y197844D01*
X220485Y197906D01*
X220479Y197971D01*
X220475Y198037D01*
X220472Y198106D01*
Y198108D01*
Y198110D01*
Y198123D01*
Y198143D01*
X220475Y198168D01*
X220477Y198201D01*
X220481Y198239D01*
X220485Y198282D01*
X220492Y198330D01*
X220498Y198381D01*
X220509Y198435D01*
X220522Y198491D01*
X220537Y198547D01*
X220554Y198607D01*
X220573Y198665D01*
X220597Y198723D01*
X220623Y198781D01*
X220625Y198785D01*
X220629Y198794D01*
X220638Y198811D01*
X220651Y198830D01*
X220666Y198856D01*
X220685Y198886D01*
X220707Y198919D01*
X220733Y198953D01*
X220763Y198990D01*
X220793Y199028D01*
X220829Y199067D01*
X220868Y199106D01*
X220909Y199144D01*
X220952Y199181D01*
X221001Y199213D01*
X221051Y199246D01*
X221055Y199248D01*
X221064Y199252D01*
X221079Y199260D01*
X221100Y199271D01*
X221126Y199282D01*
X221158Y199297D01*
X221193Y199312D01*
X221234Y199327D01*
X221279Y199342D01*
X221326Y199355D01*
X221378Y199370D01*
X221431Y199381D01*
X221489Y199392D01*
X221550Y199400D01*
X221610Y199405D01*
X221674Y199407D01*
X221709D01*
X221732Y199405D01*
D02*
G37*
%LPC*%
G36*
X221676Y199121D02*
X221659D01*
X221640Y199119D01*
X221614Y199117D01*
X221582Y199112D01*
X221545Y199108D01*
X221504Y199099D01*
X221459Y199089D01*
X221412Y199076D01*
X221362Y199058D01*
X221311Y199037D01*
X221259Y199013D01*
X221208Y198983D01*
X221156Y198949D01*
X221107Y198910D01*
X221059Y198865D01*
X221057Y198863D01*
X221049Y198854D01*
X221038Y198839D01*
X221021Y198818D01*
X221004Y198790D01*
X220982Y198757D01*
X220960Y198719D01*
X220937Y198676D01*
X220913Y198624D01*
X220892Y198568D01*
X220870Y198506D01*
X220853Y198437D01*
X220838Y198364D01*
X220825Y198284D01*
X220816Y198198D01*
X220814Y198106D01*
Y198104D01*
Y198100D01*
Y198093D01*
Y198084D01*
Y198074D01*
X220816Y198059D01*
X220819Y198024D01*
X220821Y197983D01*
X220827Y197936D01*
X220834Y197885D01*
X220844Y197827D01*
X220857Y197766D01*
X220872Y197706D01*
X220892Y197644D01*
X220915Y197579D01*
X220943Y197519D01*
X220975Y197459D01*
X221012Y197403D01*
X221055Y197351D01*
X221057Y197349D01*
X221066Y197341D01*
X221081Y197328D01*
X221098Y197310D01*
X221124Y197291D01*
X221152Y197270D01*
X221186Y197246D01*
X221225Y197222D01*
X221266Y197197D01*
X221313Y197173D01*
X221365Y197151D01*
X221421Y197132D01*
X221479Y197115D01*
X221541Y197102D01*
X221608Y197093D01*
X221676Y197091D01*
X221694D01*
X221707Y197093D01*
X221724D01*
X221741Y197096D01*
X221762Y197098D01*
X221786Y197100D01*
X221838Y197108D01*
X221894Y197119D01*
X221954Y197136D01*
X222014Y197158D01*
X222012Y197160D01*
X222007Y197162D01*
X221999Y197169D01*
X221986Y197175D01*
X221973Y197184D01*
X221956Y197192D01*
X221937Y197203D01*
X221913Y197214D01*
X221864Y197237D01*
X221808Y197261D01*
X221747Y197283D01*
X221683Y197302D01*
X221765Y197543D01*
X221769D01*
X221778Y197538D01*
X221793Y197534D01*
X221812Y197528D01*
X221838Y197519D01*
X221866Y197508D01*
X221898Y197498D01*
X221932Y197483D01*
X221969Y197468D01*
X222007Y197448D01*
X222087Y197407D01*
X222167Y197358D01*
X222203Y197332D01*
X222240Y197302D01*
X222244Y197304D01*
X222253Y197315D01*
X222268Y197330D01*
X222285Y197351D01*
X222308Y197381D01*
X222332Y197416D01*
X222360Y197457D01*
X222388Y197504D01*
X222414Y197558D01*
X222442Y197616D01*
X222465Y197682D01*
X222489Y197756D01*
X222506Y197833D01*
X222521Y197917D01*
X222530Y198009D01*
X222534Y198106D01*
Y198110D01*
Y198119D01*
Y198136D01*
X222532Y198158D01*
Y198183D01*
X222528Y198216D01*
X222526Y198250D01*
X222521Y198287D01*
X222515Y198327D01*
X222509Y198371D01*
X222489Y198461D01*
X222478Y198506D01*
X222463Y198551D01*
X222448Y198596D01*
X222429Y198639D01*
X222427Y198641D01*
X222425Y198650D01*
X222418Y198661D01*
X222410Y198678D01*
X222399Y198695D01*
X222386Y198719D01*
X222371Y198742D01*
X222352Y198768D01*
X222332Y198796D01*
X222311Y198826D01*
X222285Y198856D01*
X222257Y198884D01*
X222229Y198914D01*
X222197Y198942D01*
X222162Y198968D01*
X222126Y198994D01*
X222124Y198996D01*
X222117Y199000D01*
X222106Y199005D01*
X222091Y199013D01*
X222072Y199024D01*
X222048Y199035D01*
X222023Y199046D01*
X221995Y199058D01*
X221962Y199069D01*
X221928Y199080D01*
X221891Y199091D01*
X221853Y199101D01*
X221810Y199110D01*
X221767Y199114D01*
X221722Y199119D01*
X221676Y199121D01*
D02*
G37*
%LPD*%
D10*
X214370Y203150D02*
X226575D01*
Y190551D02*
Y203150D01*
X214370Y190551D02*
X226575D01*
X214370D02*
Y203150D01*
M02*
