G04*
G04 #@! TF.GenerationSoftware,Altium Limited,Altium Designer,18.1.9 (240)*
G04*
G04 Layer_Color=32896*
%FSLAX44Y44*%
%MOMM*%
G71*
G01*
G75*
%ADD10C,0.2000*%
%ADD11C,0.1000*%
%ADD12C,0.2540*%
%ADD13C,0.1500*%
%ADD14C,0.0500*%
G36*
X569874Y500000D02*
X569087D01*
Y504991D01*
X569082Y504986D01*
X569076Y504980D01*
X569060Y504964D01*
X569038Y504948D01*
X569005Y504920D01*
X568972Y504893D01*
X568934Y504860D01*
X568890Y504822D01*
X568781Y504740D01*
X568656Y504653D01*
X568508Y504554D01*
X568344Y504451D01*
X568339Y504445D01*
X568323Y504440D01*
X568301Y504423D01*
X568268Y504407D01*
X568230Y504385D01*
X568181Y504358D01*
X568126Y504331D01*
X568071Y504298D01*
X567940Y504232D01*
X567804Y504167D01*
X567662Y504101D01*
X567525Y504047D01*
Y504806D01*
X567531Y504811D01*
X567553Y504822D01*
X567591Y504838D01*
X567635Y504860D01*
X567695Y504893D01*
X567760Y504926D01*
X567831Y504969D01*
X567913Y505019D01*
X568000Y505068D01*
X568093Y505128D01*
X568284Y505253D01*
X568475Y505396D01*
X568667Y505554D01*
X568672Y505559D01*
X568688Y505576D01*
X568716Y505597D01*
X568749Y505630D01*
X568787Y505668D01*
X568836Y505718D01*
X568885Y505767D01*
X568940Y505827D01*
X569054Y505958D01*
X569169Y506100D01*
X569278Y506253D01*
X569322Y506335D01*
X569366Y506411D01*
X569874D01*
Y500000D01*
D02*
G37*
G36*
X563200Y506488D02*
X563282Y506482D01*
X563369Y506471D01*
X563473Y506460D01*
X563582Y506438D01*
X563703Y506417D01*
X563834Y506389D01*
X563965Y506357D01*
X564101Y506318D01*
X564238Y506269D01*
X564374Y506209D01*
X564511Y506149D01*
X564647Y506073D01*
X564658Y506067D01*
X564680Y506051D01*
X564713Y506029D01*
X564762Y505996D01*
X564822Y505952D01*
X564893Y505898D01*
X564969Y505838D01*
X565051Y505767D01*
X565133Y505690D01*
X565226Y505597D01*
X565314Y505505D01*
X565401Y505396D01*
X565494Y505286D01*
X565576Y505161D01*
X565658Y505030D01*
X565729Y504893D01*
X565734Y504882D01*
X565745Y504860D01*
X565761Y504817D01*
X565789Y504762D01*
X565816Y504691D01*
X565849Y504604D01*
X565882Y504505D01*
X565920Y504396D01*
X565952Y504276D01*
X565985Y504145D01*
X566018Y504003D01*
X566045Y503856D01*
X566073Y503697D01*
X566089Y503533D01*
X566100Y503364D01*
X566105Y503189D01*
Y503178D01*
Y503157D01*
Y503113D01*
X566100Y503058D01*
Y502987D01*
X566095Y502905D01*
X566084Y502818D01*
X566078Y502720D01*
X566062Y502610D01*
X566045Y502501D01*
X566002Y502261D01*
X565947Y502015D01*
X565909Y501895D01*
X565865Y501775D01*
Y501769D01*
X565854Y501748D01*
X565838Y501715D01*
X565821Y501671D01*
X565794Y501617D01*
X565761Y501551D01*
X565729Y501480D01*
X565685Y501404D01*
X565636Y501322D01*
X565581Y501229D01*
X565527Y501141D01*
X565461Y501049D01*
X565390Y500956D01*
X565314Y500857D01*
X565232Y500765D01*
X565144Y500677D01*
X565150Y500672D01*
X565172Y500661D01*
X565204Y500639D01*
X565243Y500612D01*
X565297Y500579D01*
X565357Y500541D01*
X565423Y500497D01*
X565499Y500453D01*
X565581Y500404D01*
X565663Y500355D01*
X565849Y500257D01*
X566034Y500164D01*
X566226Y500087D01*
X565974Y499509D01*
X565969Y499514D01*
X565942Y499519D01*
X565909Y499536D01*
X565860Y499558D01*
X565794Y499580D01*
X565723Y499612D01*
X565641Y499650D01*
X565548Y499700D01*
X565450Y499749D01*
X565341Y499803D01*
X565226Y499869D01*
X565112Y499940D01*
X564991Y500016D01*
X564866Y500098D01*
X564735Y500186D01*
X564609Y500284D01*
X564604Y500279D01*
X564576Y500268D01*
X564538Y500246D01*
X564483Y500224D01*
X564418Y500191D01*
X564342Y500158D01*
X564249Y500126D01*
X564145Y500087D01*
X564036Y500049D01*
X563915Y500016D01*
X563784Y499984D01*
X563648Y499951D01*
X563501Y499929D01*
X563353Y499907D01*
X563195Y499896D01*
X563036Y499891D01*
X562998D01*
X562954Y499896D01*
X562889D01*
X562812Y499902D01*
X562725Y499913D01*
X562627Y499924D01*
X562518Y499945D01*
X562397Y499967D01*
X562272Y499995D01*
X562141Y500027D01*
X562010Y500065D01*
X561873Y500115D01*
X561737Y500169D01*
X561600Y500235D01*
X561464Y500306D01*
X561458Y500311D01*
X561431Y500328D01*
X561398Y500350D01*
X561349Y500382D01*
X561289Y500426D01*
X561223Y500481D01*
X561147Y500541D01*
X561065Y500612D01*
X560978Y500688D01*
X560890Y500775D01*
X560797Y500874D01*
X560710Y500978D01*
X560617Y501092D01*
X560535Y501212D01*
X560453Y501343D01*
X560377Y501480D01*
X560371Y501491D01*
X560360Y501513D01*
X560344Y501556D01*
X560317Y501611D01*
X560289Y501688D01*
X560257Y501769D01*
X560224Y501868D01*
X560191Y501977D01*
X560153Y502097D01*
X560120Y502234D01*
X560087Y502370D01*
X560060Y502523D01*
X560033Y502681D01*
X560016Y502845D01*
X560005Y503014D01*
X560000Y503189D01*
Y503195D01*
Y503200D01*
Y503233D01*
Y503282D01*
X560005Y503348D01*
X560011Y503429D01*
X560022Y503528D01*
X560033Y503637D01*
X560049Y503757D01*
X560065Y503888D01*
X560093Y504025D01*
X560126Y504167D01*
X560164Y504309D01*
X560207Y504462D01*
X560257Y504609D01*
X560317Y504757D01*
X560382Y504904D01*
X560388Y504915D01*
X560399Y504937D01*
X560420Y504980D01*
X560453Y505030D01*
X560491Y505095D01*
X560541Y505172D01*
X560595Y505253D01*
X560661Y505341D01*
X560737Y505434D01*
X560814Y505532D01*
X560906Y505630D01*
X561005Y505729D01*
X561109Y505827D01*
X561218Y505920D01*
X561343Y506002D01*
X561469Y506084D01*
X561480Y506089D01*
X561502Y506100D01*
X561540Y506122D01*
X561595Y506149D01*
X561660Y506176D01*
X561742Y506215D01*
X561829Y506253D01*
X561933Y506291D01*
X562048Y506329D01*
X562168Y506362D01*
X562299Y506400D01*
X562436Y506428D01*
X562583Y506455D01*
X562736Y506477D01*
X562889Y506488D01*
X563053Y506493D01*
X563140D01*
X563200Y506488D01*
D02*
G37*
G36*
X649716Y514539D02*
X637914D01*
Y513151D01*
X638608D01*
Y490935D01*
X637914D01*
Y490240D01*
X637220D01*
Y489546D01*
X636525D01*
Y488852D01*
X635831D01*
Y488158D01*
X635137D01*
Y487463D01*
X634443D01*
Y486769D01*
X618475D01*
Y487463D01*
X617780D01*
Y488852D01*
X616392D01*
Y489546D01*
X615698D01*
Y490935D01*
X615003D01*
Y491629D01*
X614309D01*
Y514539D01*
X615698D01*
Y515928D01*
X615003D01*
Y516622D01*
X614309D01*
Y518705D01*
X649716D01*
Y514539D01*
D02*
G37*
G36*
X646245Y479132D02*
X642079D01*
Y483992D01*
X646245D01*
Y479132D01*
D02*
G37*
G36*
X638608D02*
X614309D01*
Y483992D01*
X638608D01*
Y479132D01*
D02*
G37*
G36*
Y461082D02*
X637914D01*
Y459693D01*
X638608D01*
Y456916D01*
X614309D01*
Y461776D01*
X633054D01*
Y462470D01*
X633748D01*
Y463164D01*
X634443D01*
Y476355D01*
X638608D01*
Y461082D01*
D02*
G37*
G36*
X558585Y433112D02*
X558732Y433062D01*
X558831Y432997D01*
X558864Y432980D01*
Y432964D01*
X558930Y432898D01*
X559012Y432799D01*
X559127Y432602D01*
X559176Y432504D01*
X559209Y432421D01*
X559242Y432372D01*
Y432356D01*
X559308Y432224D01*
X559357Y432142D01*
X559406Y432109D01*
X559423Y432093D01*
X559653Y431994D01*
X559817Y431928D01*
X559866Y431912D01*
X559916Y431896D01*
X559949Y431879D01*
X574525Y428461D01*
Y423186D01*
X573079Y422824D01*
X563498Y425059D01*
Y422380D01*
X561559Y422019D01*
Y425437D01*
X559916Y425799D01*
X559850Y425815D01*
X559768D01*
X559702D01*
X559686D01*
X559669D01*
X559571Y425799D01*
X559505Y425782D01*
X559456Y425766D01*
X559439Y425749D01*
X559390Y425700D01*
X559341Y425634D01*
X559308Y425569D01*
X559291Y425552D01*
X559209Y425404D01*
X559127Y425289D01*
X559061Y425191D01*
X558996Y425108D01*
X558946Y425059D01*
X558913Y425026D01*
X558897Y424993D01*
X558880D01*
X558732Y424911D01*
X558568Y424878D01*
X558503Y424862D01*
X558437D01*
X558404D01*
X558387D01*
X558240Y424878D01*
X558108Y424911D01*
X557993Y424944D01*
X557911Y425010D01*
X557829Y425059D01*
X557779Y425092D01*
X557747Y425125D01*
X557730Y425141D01*
X557648Y425256D01*
X557599Y425388D01*
X557533Y425634D01*
X557516Y425733D01*
X557500Y425815D01*
Y431928D01*
X557516Y432142D01*
X557533Y432323D01*
X557582Y432487D01*
X557631Y432635D01*
X557697Y432750D01*
X557779Y432849D01*
X557862Y432931D01*
X557944Y432997D01*
X558092Y433079D01*
X558240Y433128D01*
X558338Y433145D01*
X558355D01*
X558371D01*
X558486D01*
X558585Y433112D01*
D02*
G37*
G36*
X634443Y453445D02*
X635831D01*
Y452750D01*
X635137D01*
Y452056D01*
X636525D01*
Y451362D01*
X637220D01*
Y450668D01*
X637914D01*
Y449973D01*
X638608D01*
Y427063D01*
X637914D01*
Y426368D01*
X649716D01*
Y422203D01*
X614309D01*
Y424286D01*
X615003D01*
Y424980D01*
X615698D01*
Y425674D01*
X615003D01*
Y426368D01*
X614309D01*
Y449973D01*
X615698D01*
Y451362D01*
X616392D01*
Y452056D01*
X617086D01*
Y452750D01*
X617780D01*
Y453445D01*
X618475D01*
Y454139D01*
X634443D01*
Y453445D01*
D02*
G37*
G36*
X571436Y422561D02*
X561280Y419570D01*
X561000Y419488D01*
X560754Y419389D01*
X560524Y419307D01*
X560343Y419225D01*
X560195Y419143D01*
X560080Y419077D01*
X560014Y419044D01*
X559998Y419028D01*
X559834Y418896D01*
X559719Y418765D01*
X559636Y418666D01*
X559604Y418650D01*
Y418633D01*
X559554Y418551D01*
X559488Y418436D01*
X559374Y418223D01*
X559324Y418124D01*
X559275Y418042D01*
X559258Y417976D01*
X559242Y417960D01*
X559127Y417730D01*
X558996Y417565D01*
X558864Y417450D01*
X558732Y417368D01*
X558618Y417319D01*
X558519Y417302D01*
X558453Y417286D01*
X558437D01*
X558272Y417302D01*
X558141Y417335D01*
X558026Y417385D01*
X557927Y417450D01*
X557845Y417516D01*
X557796Y417565D01*
X557763Y417598D01*
X557747Y417615D01*
X557664Y417746D01*
X557599Y417894D01*
X557566Y418042D01*
X557533Y418173D01*
X557516Y418305D01*
X557500Y418404D01*
Y421575D01*
X557516Y421772D01*
X557533Y421953D01*
X557582Y422101D01*
X557631Y422249D01*
X557697Y422348D01*
X557763Y422446D01*
X557845Y422528D01*
X557927Y422578D01*
X558075Y422660D01*
X558207Y422709D01*
X558305Y422725D01*
X558322D01*
X558338D01*
X558535Y422709D01*
X558716Y422643D01*
X558864Y422545D01*
X558979Y422446D01*
X559061Y422348D01*
X559127Y422249D01*
X559160Y422183D01*
X559176Y422167D01*
X559374Y421740D01*
X559488Y421559D01*
X559604Y421411D01*
X559751Y421312D01*
X559899Y421246D01*
X560031Y421214D01*
X560129Y421197D01*
X560195Y421181D01*
X560228D01*
X560425Y421197D01*
X560606Y421230D01*
X560672D01*
X560737Y421246D01*
X560770Y421263D01*
X560787D01*
X568675Y423416D01*
X571436Y422561D01*
D02*
G37*
G36*
X574525Y413293D02*
X572652D01*
X572537Y413506D01*
X572438Y413687D01*
X572356Y413851D01*
X572290Y413966D01*
X572258Y414049D01*
X572225Y414114D01*
X572208Y414147D01*
Y414164D01*
X571781Y414344D01*
X571370Y414509D01*
X570992Y414624D01*
X570663Y414722D01*
X570516Y414755D01*
X570384Y414788D01*
X570253Y414821D01*
X570154Y414837D01*
X570088Y414854D01*
X570023Y414870D01*
X569990D01*
X569973D01*
X569250Y415002D01*
X569086Y415034D01*
X568954Y415084D01*
X568839Y415133D01*
X568724Y415199D01*
X568659Y415248D01*
X568593Y415281D01*
X568560Y415314D01*
X568544Y415330D01*
X568461Y415429D01*
X568396Y415544D01*
X568363Y415659D01*
X568330Y415774D01*
X568313Y415856D01*
X568297Y415938D01*
Y416004D01*
X568313Y416152D01*
X568346Y416300D01*
X568379Y416415D01*
X568445Y416514D01*
X568494Y416596D01*
X568527Y416661D01*
X568560Y416694D01*
X568576Y416711D01*
X568691Y416809D01*
X568823Y416875D01*
X568938Y416924D01*
X569053Y416957D01*
X569168Y416974D01*
X569250Y416990D01*
X569300D01*
X569316D01*
X574525D01*
Y413293D01*
D02*
G37*
G36*
X638608Y416649D02*
X637914D01*
Y415260D01*
X636525D01*
Y414566D01*
X635137D01*
Y413872D01*
X633748D01*
Y413178D01*
X632360D01*
Y412483D01*
X631665D01*
Y413178D01*
X630971D01*
Y411789D01*
X629583D01*
Y411095D01*
X626806D01*
Y409706D01*
X625417D01*
Y409012D01*
X624029D01*
Y408318D01*
X622640D01*
Y407623D01*
X621252D01*
Y406929D01*
X620557D01*
Y407623D01*
X619863D01*
Y406929D01*
X619169D01*
Y406235D01*
X620557D01*
Y405541D01*
X621946D01*
Y404846D01*
X623334D01*
Y404152D01*
X624029D01*
Y403458D01*
X626111D01*
Y402764D01*
X627500D01*
Y402070D01*
X628889D01*
Y401375D01*
X630277D01*
Y400681D01*
X631665D01*
Y399987D01*
X633054D01*
Y399292D01*
X634443D01*
Y398598D01*
X635137D01*
Y397904D01*
X637220D01*
Y397210D01*
X638608D01*
Y391656D01*
X637914D01*
Y392350D01*
X636525D01*
Y393044D01*
X635137D01*
Y393738D01*
X633748D01*
Y394433D01*
X633054D01*
Y395127D01*
X630971D01*
Y395821D01*
X629583D01*
Y396515D01*
X628889D01*
Y397210D01*
X626806D01*
Y397904D01*
X625417D01*
Y398598D01*
X624029D01*
Y399292D01*
X622640D01*
Y399987D01*
X621946D01*
Y400681D01*
X619863D01*
Y401375D01*
X618475D01*
Y402070D01*
X617780D01*
Y402764D01*
X615698D01*
Y403458D01*
X612920D01*
Y402764D01*
X611532D01*
Y402070D01*
X610144D01*
Y401375D01*
X609449D01*
Y402070D01*
X608755D01*
Y400681D01*
X607366D01*
Y399987D01*
X604589D01*
Y398598D01*
X603201D01*
Y399292D01*
X603895D01*
Y399987D01*
X603201D01*
Y404152D01*
X605978D01*
Y405541D01*
X607366D01*
Y406235D01*
X609449D01*
Y406929D01*
X610144D01*
Y407623D01*
X611532D01*
Y408318D01*
X612920D01*
Y409012D01*
X614309D01*
Y409706D01*
X615698D01*
Y410401D01*
X616392D01*
Y409706D01*
X617086D01*
Y411095D01*
X618475D01*
Y411789D01*
X619863D01*
Y412483D01*
X621252D01*
Y413178D01*
X622640D01*
Y413872D01*
X624029D01*
Y414566D01*
X625417D01*
Y415260D01*
X626806D01*
Y415955D01*
X628194D01*
Y416649D01*
X629583D01*
Y417343D01*
X630971D01*
Y418037D01*
X632360D01*
Y418732D01*
X633748D01*
Y419426D01*
X635137D01*
Y420120D01*
X636525D01*
Y420814D01*
X637914D01*
Y421509D01*
X638608D01*
Y416649D01*
D02*
G37*
G36*
X558519Y414279D02*
X558634Y414262D01*
X558831Y414164D01*
X558996Y414016D01*
X559127Y413851D01*
X559209Y413687D01*
X559258Y413539D01*
X559291Y413440D01*
X559308Y413424D01*
Y413408D01*
X559341Y413293D01*
X559374Y413210D01*
X559390Y413145D01*
X559406Y413095D01*
X559423Y413030D01*
Y413013D01*
X559456Y412980D01*
X559488Y412931D01*
X559521Y412915D01*
X559538Y412898D01*
X559587Y412865D01*
X559669Y412849D01*
X559834Y412816D01*
X559899Y412799D01*
X559965D01*
X560014D01*
X560031D01*
X574525D01*
Y406916D01*
X560031D01*
X559899D01*
X559784Y406900D01*
X559702Y406867D01*
X559620Y406851D01*
X559571Y406818D01*
X559538Y406785D01*
X559505Y406768D01*
X559472Y406735D01*
X559439Y406719D01*
X559423Y406703D01*
Y406653D01*
X559406Y406588D01*
X559390Y406505D01*
X559357Y406407D01*
X559341Y406325D01*
X559308Y406242D01*
X559291Y406177D01*
Y406160D01*
X559258Y406029D01*
X559209Y405914D01*
X559078Y405733D01*
X558930Y405602D01*
X558782Y405519D01*
X558634Y405454D01*
X558503Y405437D01*
X558420Y405421D01*
X558404D01*
X558387D01*
X558223Y405437D01*
X558092Y405470D01*
X557977Y405536D01*
X557878Y405602D01*
X557812Y405667D01*
X557763Y405733D01*
X557730Y405766D01*
X557714Y405782D01*
X557648Y405930D01*
X557599Y406078D01*
X557549Y406242D01*
X557533Y406390D01*
X557516Y406522D01*
X557500Y406637D01*
Y413161D01*
X557533Y413342D01*
X557549Y413506D01*
X557582Y413638D01*
X557615Y413736D01*
X557631Y413802D01*
X557664Y413835D01*
Y413851D01*
X557779Y413999D01*
X557894Y414114D01*
X558009Y414180D01*
X558125Y414246D01*
X558240Y414279D01*
X558322Y414295D01*
X558371D01*
X558387D01*
X558519Y414279D01*
D02*
G37*
G36*
X574525Y402742D02*
X569316D01*
X569152Y402758D01*
X569020Y402791D01*
X568889Y402824D01*
X568774Y402873D01*
X568691Y402923D01*
X568626Y402972D01*
X568593Y402989D01*
X568576Y403005D01*
X568478Y403104D01*
X568412Y403219D01*
X568363Y403334D01*
X568330Y403449D01*
X568313Y403547D01*
X568297Y403629D01*
Y403695D01*
X568313Y403843D01*
X568346Y403991D01*
X568379Y404106D01*
X568428Y404205D01*
X568478Y404287D01*
X568527Y404336D01*
X568544Y404369D01*
X568560Y404385D01*
X568659Y404468D01*
X568774Y404550D01*
X569004Y404648D01*
X569102Y404681D01*
X569184Y404698D01*
X569234Y404714D01*
X569250D01*
X569973Y404846D01*
X570368Y404911D01*
X570696Y405010D01*
X571009Y405092D01*
X571255Y405191D01*
X571452Y405273D01*
X571600Y405339D01*
X571682Y405388D01*
X571715Y405404D01*
X571929Y405569D01*
X572110Y405733D01*
X572274Y405914D01*
X572406Y406078D01*
X572520Y406210D01*
X572603Y406341D01*
X572652Y406407D01*
X572668Y406440D01*
X574525D01*
Y402742D01*
D02*
G37*
G36*
Y398256D02*
X572652D01*
X572537Y398469D01*
X572438Y398650D01*
X572356Y398814D01*
X572290Y398929D01*
X572258Y399012D01*
X572225Y399077D01*
X572208Y399110D01*
Y399127D01*
X571781Y399307D01*
X571370Y399472D01*
X570992Y399587D01*
X570663Y399685D01*
X570516Y399718D01*
X570384Y399751D01*
X570253Y399784D01*
X570154Y399800D01*
X570088Y399817D01*
X570023Y399833D01*
X569990D01*
X569973D01*
X569250Y399965D01*
X569086Y399998D01*
X568954Y400047D01*
X568839Y400096D01*
X568724Y400162D01*
X568659Y400211D01*
X568593Y400244D01*
X568560Y400277D01*
X568544Y400293D01*
X568461Y400392D01*
X568396Y400507D01*
X568363Y400622D01*
X568330Y400737D01*
X568313Y400819D01*
X568297Y400901D01*
Y400967D01*
X568313Y401115D01*
X568346Y401263D01*
X568379Y401378D01*
X568445Y401477D01*
X568494Y401559D01*
X568527Y401624D01*
X568560Y401657D01*
X568576Y401674D01*
X568691Y401772D01*
X568823Y401838D01*
X568938Y401888D01*
X569053Y401920D01*
X569168Y401937D01*
X569250Y401953D01*
X569300D01*
X569316D01*
X574525D01*
Y398256D01*
D02*
G37*
G36*
X558519Y399242D02*
X558634Y399225D01*
X558831Y399127D01*
X558996Y398979D01*
X559127Y398814D01*
X559209Y398650D01*
X559258Y398502D01*
X559291Y398404D01*
X559308Y398387D01*
Y398371D01*
X559341Y398256D01*
X559374Y398173D01*
X559390Y398108D01*
X559406Y398058D01*
X559423Y397993D01*
Y397976D01*
X559456Y397943D01*
X559488Y397894D01*
X559521Y397878D01*
X559538Y397861D01*
X559587Y397828D01*
X559669Y397812D01*
X559834Y397779D01*
X559899Y397763D01*
X559965D01*
X560014D01*
X560031D01*
X574525D01*
Y391879D01*
X560031D01*
X559899D01*
X559784Y391863D01*
X559702Y391830D01*
X559620Y391814D01*
X559571Y391781D01*
X559538Y391748D01*
X559505Y391731D01*
X559472Y391698D01*
X559439Y391682D01*
X559423Y391666D01*
Y391616D01*
X559406Y391551D01*
X559390Y391469D01*
X559357Y391370D01*
X559341Y391288D01*
X559308Y391205D01*
X559291Y391140D01*
Y391123D01*
X559258Y390992D01*
X559209Y390877D01*
X559078Y390696D01*
X558930Y390565D01*
X558782Y390482D01*
X558634Y390417D01*
X558503Y390400D01*
X558420Y390384D01*
X558404D01*
X558387D01*
X558223Y390400D01*
X558092Y390433D01*
X557977Y390499D01*
X557878Y390565D01*
X557812Y390630D01*
X557763Y390696D01*
X557730Y390729D01*
X557714Y390745D01*
X557648Y390893D01*
X557599Y391041D01*
X557549Y391205D01*
X557533Y391353D01*
X557516Y391485D01*
X557500Y391600D01*
Y398124D01*
X557533Y398305D01*
X557549Y398469D01*
X557582Y398601D01*
X557615Y398699D01*
X557631Y398765D01*
X557664Y398798D01*
Y398814D01*
X557779Y398962D01*
X557894Y399077D01*
X558009Y399143D01*
X558125Y399209D01*
X558240Y399242D01*
X558322Y399258D01*
X558371D01*
X558387D01*
X558519Y399242D01*
D02*
G37*
G36*
X574525Y387705D02*
X569316D01*
X569152Y387722D01*
X569020Y387754D01*
X568889Y387787D01*
X568774Y387837D01*
X568691Y387886D01*
X568626Y387935D01*
X568593Y387952D01*
X568576Y387968D01*
X568478Y388067D01*
X568412Y388182D01*
X568363Y388297D01*
X568330Y388412D01*
X568313Y388510D01*
X568297Y388592D01*
Y388658D01*
X568313Y388806D01*
X568346Y388954D01*
X568379Y389069D01*
X568428Y389168D01*
X568478Y389250D01*
X568527Y389299D01*
X568544Y389332D01*
X568560Y389348D01*
X568659Y389431D01*
X568774Y389513D01*
X569004Y389611D01*
X569102Y389644D01*
X569184Y389661D01*
X569234Y389677D01*
X569250D01*
X569973Y389809D01*
X570368Y389874D01*
X570696Y389973D01*
X571009Y390055D01*
X571255Y390154D01*
X571452Y390236D01*
X571600Y390302D01*
X571682Y390351D01*
X571715Y390367D01*
X571929Y390532D01*
X572110Y390696D01*
X572274Y390877D01*
X572406Y391041D01*
X572520Y391173D01*
X572603Y391304D01*
X572652Y391370D01*
X572668Y391403D01*
X574525D01*
Y387705D01*
D02*
G37*
G36*
X558585Y387360D02*
X558732Y387311D01*
X558831Y387245D01*
X558864Y387229D01*
Y387212D01*
X558930Y387146D01*
X559012Y387048D01*
X559127Y386851D01*
X559176Y386752D01*
X559209Y386670D01*
X559242Y386620D01*
Y386604D01*
X559308Y386473D01*
X559357Y386390D01*
X559406Y386357D01*
X559423Y386341D01*
X559653Y386242D01*
X559817Y386177D01*
X559866Y386160D01*
X559916Y386144D01*
X559949Y386128D01*
X574525Y382709D01*
Y377434D01*
X573079Y377072D01*
X563498Y379307D01*
Y376629D01*
X561559Y376267D01*
Y379685D01*
X559916Y380047D01*
X559850Y380063D01*
X559768D01*
X559702D01*
X559686D01*
X559669D01*
X559571Y380047D01*
X559505Y380031D01*
X559456Y380014D01*
X559439Y379998D01*
X559390Y379948D01*
X559341Y379883D01*
X559308Y379817D01*
X559291Y379800D01*
X559209Y379653D01*
X559127Y379538D01*
X559061Y379439D01*
X558996Y379357D01*
X558946Y379307D01*
X558913Y379275D01*
X558897Y379242D01*
X558880D01*
X558732Y379160D01*
X558568Y379127D01*
X558503Y379110D01*
X558437D01*
X558404D01*
X558387D01*
X558240Y379127D01*
X558108Y379160D01*
X557993Y379192D01*
X557911Y379258D01*
X557829Y379307D01*
X557779Y379340D01*
X557747Y379373D01*
X557730Y379390D01*
X557648Y379505D01*
X557599Y379636D01*
X557533Y379883D01*
X557516Y379981D01*
X557500Y380063D01*
Y386177D01*
X557516Y386390D01*
X557533Y386571D01*
X557582Y386735D01*
X557631Y386883D01*
X557697Y386998D01*
X557779Y387097D01*
X557862Y387179D01*
X557944Y387245D01*
X558092Y387327D01*
X558240Y387376D01*
X558338Y387393D01*
X558355D01*
X558371D01*
X558486D01*
X558585Y387360D01*
D02*
G37*
G36*
X571436Y376810D02*
X561280Y373819D01*
X561000Y373736D01*
X560754Y373638D01*
X560524Y373556D01*
X560343Y373473D01*
X560195Y373391D01*
X560080Y373326D01*
X560014Y373293D01*
X559998Y373276D01*
X559834Y373145D01*
X559719Y373013D01*
X559636Y372915D01*
X559604Y372898D01*
Y372882D01*
X559554Y372800D01*
X559488Y372685D01*
X559374Y372471D01*
X559324Y372372D01*
X559275Y372290D01*
X559258Y372225D01*
X559242Y372208D01*
X559127Y371978D01*
X558996Y371814D01*
X558864Y371699D01*
X558732Y371616D01*
X558618Y371567D01*
X558519Y371551D01*
X558453Y371534D01*
X558437D01*
X558272Y371551D01*
X558141Y371584D01*
X558026Y371633D01*
X557927Y371699D01*
X557845Y371764D01*
X557796Y371814D01*
X557763Y371847D01*
X557747Y371863D01*
X557664Y371994D01*
X557599Y372142D01*
X557566Y372290D01*
X557533Y372422D01*
X557516Y372553D01*
X557500Y372652D01*
Y375824D01*
X557516Y376021D01*
X557533Y376202D01*
X557582Y376349D01*
X557631Y376497D01*
X557697Y376596D01*
X557763Y376694D01*
X557845Y376777D01*
X557927Y376826D01*
X558075Y376908D01*
X558207Y376957D01*
X558305Y376974D01*
X558322D01*
X558338D01*
X558535Y376957D01*
X558716Y376892D01*
X558864Y376793D01*
X558979Y376694D01*
X559061Y376596D01*
X559127Y376497D01*
X559160Y376432D01*
X559176Y376415D01*
X559374Y375988D01*
X559488Y375807D01*
X559604Y375659D01*
X559751Y375560D01*
X559899Y375495D01*
X560031Y375462D01*
X560129Y375446D01*
X560195Y375429D01*
X560228D01*
X560425Y375446D01*
X560606Y375478D01*
X560672D01*
X560737Y375495D01*
X560770Y375511D01*
X560787D01*
X568675Y377664D01*
X571436Y376810D01*
D02*
G37*
G36*
X573753Y371173D02*
X573868Y371140D01*
X573983Y371091D01*
X574065Y371041D01*
X574147Y370992D01*
X574197Y370943D01*
X574230Y370910D01*
X574246Y370893D01*
X574345Y370778D01*
X574410Y370630D01*
X574460Y370466D01*
X574493Y370302D01*
X574509Y370154D01*
X574525Y370022D01*
Y366884D01*
X574509Y366686D01*
X574493Y366522D01*
X574460Y366374D01*
X574427Y366243D01*
X574378Y366160D01*
X574345Y366078D01*
X574328Y366045D01*
X574312Y366029D01*
X574230Y365930D01*
X574115Y365865D01*
X573999Y365815D01*
X573901Y365782D01*
X573802Y365766D01*
X573720Y365750D01*
X573654D01*
X573638D01*
X573441Y365766D01*
X573276Y365815D01*
X573178Y365865D01*
X573161Y365881D01*
X573145D01*
X573079Y365930D01*
X573013Y366012D01*
X572898Y366160D01*
X572866Y366226D01*
X572833Y366275D01*
X572800Y366308D01*
Y366325D01*
X572668Y366555D01*
X572520Y366752D01*
X572389Y366916D01*
X572258Y367048D01*
X572142Y367146D01*
X572044Y367212D01*
X571978Y367245D01*
X571962Y367262D01*
X571764Y367360D01*
X571535Y367426D01*
X571304Y367475D01*
X571074Y367508D01*
X570861Y367524D01*
X570696Y367541D01*
X570631D01*
X570581D01*
X570548D01*
X570532D01*
X567114D01*
X564764Y369332D01*
X570532D01*
X570828Y369349D01*
X571091Y369365D01*
X571321Y369398D01*
X571518Y369447D01*
X571682Y369480D01*
X571797Y369513D01*
X571863Y369529D01*
X571896Y369546D01*
X572077Y369644D01*
X572225Y369759D01*
X572340Y369858D01*
X572455Y369957D01*
X572537Y370039D01*
X572586Y370104D01*
X572619Y370154D01*
X572635Y370170D01*
X572734Y370400D01*
X572833Y370581D01*
X572898Y370729D01*
X572964Y370844D01*
X573030Y370926D01*
X573063Y370975D01*
X573096Y371008D01*
X573178Y371074D01*
X573260Y371107D01*
X573424Y371173D01*
X573507D01*
X573572Y371189D01*
X573605D01*
X573622D01*
X573753Y371173D01*
D02*
G37*
G36*
X574525Y362775D02*
Y356990D01*
X574509Y356727D01*
X574493Y356514D01*
X574476Y356349D01*
X574443Y356234D01*
X574427Y356152D01*
X574410Y356119D01*
Y356103D01*
X574312Y355939D01*
X574197Y355807D01*
X574098Y355741D01*
X574082Y355709D01*
X574065D01*
X573885Y355626D01*
X573720Y355577D01*
X573654D01*
X573605Y355561D01*
X573572D01*
X573556D01*
X573359Y355577D01*
X573194Y355643D01*
X573129Y355659D01*
X573079Y355692D01*
X573063Y355709D01*
X573046D01*
X572915Y355824D01*
X572833Y355922D01*
X572800Y356004D01*
X572783Y356037D01*
X572603Y356497D01*
X572537Y356694D01*
X572455Y356826D01*
X572406Y356908D01*
X572373Y356925D01*
X572307Y356974D01*
X572225Y357040D01*
X572028Y357171D01*
X571929Y357237D01*
X571847Y357270D01*
X571797Y357303D01*
X571781Y357319D01*
X557500Y365602D01*
Y369332D01*
X563137D01*
X574525Y362775D01*
D02*
G37*
G36*
X558535Y360951D02*
X558683Y360902D01*
X558815Y360819D01*
X558913Y360737D01*
X558996Y360655D01*
X559061Y360573D01*
X559094Y360524D01*
X559110Y360507D01*
X559324Y360146D01*
X559439Y359948D01*
X559571Y359800D01*
X559702Y359653D01*
X559817Y359554D01*
X559932Y359472D01*
X560014Y359406D01*
X560080Y359373D01*
X560097Y359357D01*
X560294Y359275D01*
X560507Y359209D01*
X560721Y359176D01*
X560935Y359143D01*
X561115Y359127D01*
X561263Y359110D01*
X561362D01*
X561378D01*
X561395D01*
X567935D01*
X570253Y357319D01*
X561395D01*
X561115Y357303D01*
X560853Y357270D01*
X560606Y357204D01*
X560392Y357138D01*
X560179Y357056D01*
X559998Y356958D01*
X559834Y356842D01*
X559686Y356744D01*
X559571Y356629D01*
X559456Y356514D01*
X559357Y356415D01*
X559291Y356333D01*
X559226Y356267D01*
X559193Y356202D01*
X559176Y356169D01*
X559160Y356152D01*
X559061Y355955D01*
X558963Y355807D01*
X558880Y355725D01*
X558864Y355692D01*
X558848D01*
X558700Y355610D01*
X558552Y355561D01*
X558486D01*
X558420Y355544D01*
X558387D01*
X558371D01*
X558223Y355561D01*
X558092Y355610D01*
X557960Y355676D01*
X557862Y355758D01*
X557714Y355971D01*
X557615Y356218D01*
X557549Y356448D01*
X557516Y356662D01*
X557500Y356760D01*
Y359669D01*
X557516Y359916D01*
X557533Y360113D01*
X557566Y360277D01*
X557599Y360409D01*
X557631Y360491D01*
X557648Y360556D01*
X557681Y360589D01*
Y360606D01*
X557796Y360721D01*
X557911Y360819D01*
X558009Y360885D01*
X558125Y360918D01*
X558223Y360951D01*
X558289Y360967D01*
X558338D01*
X558355D01*
X558535Y360951D01*
D02*
G37*
G36*
X638608Y372216D02*
X626806D01*
Y371522D01*
X626111D01*
Y366662D01*
X664296D01*
Y365968D01*
X663602D01*
Y365274D01*
X662213D01*
Y364580D01*
X661519D01*
Y363885D01*
X660130D01*
Y363191D01*
X658742D01*
Y362497D01*
X658047D01*
Y361802D01*
X657353D01*
Y361108D01*
X655965D01*
Y360414D01*
X654576D01*
Y359720D01*
X653882D01*
Y359025D01*
X653188D01*
Y358331D01*
X651105D01*
Y356943D01*
X649716D01*
Y356248D01*
X649022D01*
Y355554D01*
X647634D01*
Y354860D01*
X646245D01*
Y354166D01*
X644856D01*
Y353471D01*
X644162D01*
Y352083D01*
X642774D01*
Y351389D01*
X642079D01*
Y350694D01*
X640691D01*
Y350000D01*
X615003D01*
Y372216D01*
X587927D01*
Y372911D01*
X590010D01*
Y373605D01*
X590704D01*
Y374299D01*
X592093D01*
Y375688D01*
X594175D01*
Y377076D01*
X596258D01*
Y377770D01*
X596953D01*
Y378465D01*
X598341D01*
Y379159D01*
X599035D01*
Y379853D01*
X600424D01*
Y380547D01*
X601118D01*
Y381936D01*
X603201D01*
Y382630D01*
X603895D01*
Y383325D01*
X604589D01*
Y384019D01*
X605978D01*
Y384713D01*
X607366D01*
Y385407D01*
X608061D01*
Y386101D01*
X609449D01*
Y386796D01*
X610838D01*
Y388184D01*
X611532D01*
Y388879D01*
X638608D01*
Y372216D01*
D02*
G37*
G36*
X558585Y354690D02*
X558732Y354640D01*
X558831Y354575D01*
X558864Y354558D01*
Y354542D01*
X558930Y354476D01*
X559012Y354377D01*
X559127Y354180D01*
X559176Y354082D01*
X559209Y353999D01*
X559242Y353950D01*
Y353934D01*
X559308Y353802D01*
X559357Y353720D01*
X559406Y353687D01*
X559423Y353671D01*
X559653Y353572D01*
X559817Y353506D01*
X559866Y353490D01*
X559916Y353474D01*
X559949Y353457D01*
X574525Y350039D01*
Y344764D01*
X573079Y344402D01*
X563498Y346637D01*
Y343958D01*
X561559Y343597D01*
Y347015D01*
X559916Y347377D01*
X559850Y347393D01*
X559768D01*
X559702D01*
X559686D01*
X559669D01*
X559571Y347377D01*
X559505Y347360D01*
X559456Y347344D01*
X559439Y347327D01*
X559390Y347278D01*
X559341Y347212D01*
X559308Y347146D01*
X559291Y347130D01*
X559209Y346982D01*
X559127Y346867D01*
X559061Y346768D01*
X558996Y346686D01*
X558946Y346637D01*
X558913Y346604D01*
X558897Y346571D01*
X558880D01*
X558732Y346489D01*
X558568Y346456D01*
X558503Y346440D01*
X558437D01*
X558404D01*
X558387D01*
X558240Y346456D01*
X558108Y346489D01*
X557993Y346522D01*
X557911Y346588D01*
X557829Y346637D01*
X557779Y346670D01*
X557747Y346703D01*
X557730Y346719D01*
X557648Y346834D01*
X557599Y346966D01*
X557533Y347212D01*
X557516Y347311D01*
X557500Y347393D01*
Y353506D01*
X557516Y353720D01*
X557533Y353901D01*
X557582Y354065D01*
X557631Y354213D01*
X557697Y354328D01*
X557779Y354427D01*
X557862Y354509D01*
X557944Y354575D01*
X558092Y354657D01*
X558240Y354706D01*
X558338Y354723D01*
X558355D01*
X558371D01*
X558486D01*
X558585Y354690D01*
D02*
G37*
G36*
X571436Y344139D02*
X561280Y341148D01*
X561000Y341066D01*
X560754Y340967D01*
X560524Y340885D01*
X560343Y340803D01*
X560195Y340721D01*
X560080Y340655D01*
X560014Y340622D01*
X559998Y340606D01*
X559834Y340474D01*
X559719Y340343D01*
X559636Y340244D01*
X559604Y340228D01*
Y340211D01*
X559554Y340129D01*
X559488Y340014D01*
X559374Y339801D01*
X559324Y339702D01*
X559275Y339620D01*
X559258Y339554D01*
X559242Y339538D01*
X559127Y339308D01*
X558996Y339143D01*
X558864Y339028D01*
X558732Y338946D01*
X558618Y338897D01*
X558519Y338880D01*
X558453Y338864D01*
X558437D01*
X558272Y338880D01*
X558141Y338913D01*
X558026Y338963D01*
X557927Y339028D01*
X557845Y339094D01*
X557796Y339143D01*
X557763Y339176D01*
X557747Y339193D01*
X557664Y339324D01*
X557599Y339472D01*
X557566Y339620D01*
X557533Y339751D01*
X557516Y339883D01*
X557500Y339981D01*
Y343153D01*
X557516Y343350D01*
X557533Y343531D01*
X557582Y343679D01*
X557631Y343827D01*
X557697Y343926D01*
X557763Y344024D01*
X557845Y344106D01*
X557927Y344156D01*
X558075Y344238D01*
X558207Y344287D01*
X558305Y344304D01*
X558322D01*
X558338D01*
X558535Y344287D01*
X558716Y344221D01*
X558864Y344123D01*
X558979Y344024D01*
X559061Y343926D01*
X559127Y343827D01*
X559160Y343761D01*
X559176Y343745D01*
X559374Y343317D01*
X559488Y343137D01*
X559604Y342989D01*
X559751Y342890D01*
X559899Y342824D01*
X560031Y342791D01*
X560129Y342775D01*
X560195Y342759D01*
X560228D01*
X560425Y342775D01*
X560606Y342808D01*
X560672D01*
X560737Y342824D01*
X560770Y342841D01*
X560787D01*
X568675Y344994D01*
X571436Y344139D01*
D02*
G37*
G36*
X562249Y338585D02*
X562397Y338568D01*
X562529Y338535D01*
X562644Y338486D01*
X562742Y338437D01*
X562808Y338404D01*
X562841Y338387D01*
X562857Y338371D01*
X562956Y338272D01*
X563038Y338174D01*
X563088Y338059D01*
X563137Y337944D01*
X563153Y337845D01*
X563170Y337763D01*
Y337566D01*
X563137Y337451D01*
X563071Y337286D01*
X563038Y337220D01*
X563005Y337171D01*
X562989Y337155D01*
X562972Y337138D01*
X562890Y337073D01*
X562792Y337007D01*
X562578Y336892D01*
X562479Y336859D01*
X562397Y336826D01*
X562348Y336793D01*
X562332D01*
X561986Y336662D01*
X561674Y336514D01*
X561411Y336399D01*
X561198Y336284D01*
X561033Y336202D01*
X560918Y336136D01*
X560836Y336087D01*
X560820Y336070D01*
X560639Y335939D01*
X560475Y335791D01*
X560327Y335659D01*
X560212Y335528D01*
X560113Y335396D01*
X560031Y335298D01*
X559981Y335232D01*
X559965Y335216D01*
X559883Y335084D01*
X559801Y334936D01*
X559653Y334608D01*
X559521Y334246D01*
X559406Y333884D01*
X559308Y333556D01*
X559258Y333408D01*
X559226Y333276D01*
X559193Y333178D01*
X559176Y333096D01*
X559160Y333046D01*
Y333030D01*
X557500Y332422D01*
Y338601D01*
X562069D01*
X562249Y338585D01*
D02*
G37*
G36*
X574525Y326506D02*
X569973D01*
X569809Y326522D01*
X569661Y326539D01*
X569546Y326588D01*
X569431Y326637D01*
X569349Y326703D01*
X569267Y326769D01*
X569152Y326933D01*
X569086Y327097D01*
X569053Y327229D01*
X569036Y327327D01*
Y327360D01*
X569053Y327492D01*
X569069Y327607D01*
X569102Y327705D01*
X569135Y327788D01*
X569168Y327853D01*
X569201Y327902D01*
X569234Y327919D01*
Y327935D01*
X569316Y328018D01*
X569414Y328067D01*
X569612Y328166D01*
X569694Y328198D01*
X569760Y328231D01*
X569809Y328248D01*
X569825D01*
X570318Y328428D01*
X570746Y328642D01*
X571107Y328872D01*
X571403Y329102D01*
X571633Y329316D01*
X571715Y329414D01*
X571797Y329497D01*
X571863Y329562D01*
X571896Y329612D01*
X571929Y329645D01*
Y329661D01*
X572126Y329973D01*
X572290Y330302D01*
X572422Y330630D01*
X572520Y330926D01*
X572586Y331189D01*
X572619Y331304D01*
X572635Y331403D01*
X572652Y331469D01*
X572668Y331534D01*
Y331584D01*
X574525Y332257D01*
Y326506D01*
D02*
G37*
G36*
Y332898D02*
X558996Y326095D01*
X557500D01*
Y331797D01*
X572833Y338601D01*
X574525D01*
Y332898D01*
D02*
G37*
G36*
X560162Y317911D02*
X560507Y317829D01*
X560820Y317697D01*
X561083Y317566D01*
X561313Y317418D01*
X561477Y317286D01*
X561526Y317237D01*
X561576Y317204D01*
X561592Y317188D01*
X561609Y317171D01*
X561740Y317023D01*
X561871Y316875D01*
X562052Y316563D01*
X562200Y316251D01*
X562282Y315955D01*
X562348Y315692D01*
X562364Y315594D01*
Y315495D01*
X562381Y315413D01*
Y315117D01*
X562348Y314920D01*
X562266Y314575D01*
X562134Y314263D01*
X562003Y313983D01*
X561855Y313769D01*
X561724Y313605D01*
X561674Y313556D01*
X561641Y313507D01*
X561625Y313490D01*
X561609Y313474D01*
X561460Y313342D01*
X561313Y313227D01*
X561000Y313030D01*
X560688Y312899D01*
X560409Y312816D01*
X560146Y312751D01*
X560047Y312734D01*
X559949D01*
X559866Y312718D01*
X559817D01*
X559784D01*
X559768D01*
X559571Y312734D01*
X559374Y312751D01*
X559028Y312833D01*
X558716Y312964D01*
X558437Y313096D01*
X558223Y313227D01*
X558059Y313359D01*
X558009Y313408D01*
X557960Y313441D01*
X557944Y313474D01*
X557927D01*
X557796Y313622D01*
X557681Y313769D01*
X557484Y314082D01*
X557352Y314394D01*
X557270Y314673D01*
X557204Y314936D01*
X557188Y315035D01*
Y315133D01*
X557171Y315216D01*
Y315314D01*
X557188Y315511D01*
X557204Y315709D01*
X557286Y316070D01*
X557418Y316382D01*
X557549Y316645D01*
X557681Y316875D01*
X557812Y317040D01*
X557862Y317089D01*
X557894Y317138D01*
X557927Y317155D01*
Y317171D01*
X558075Y317303D01*
X558223Y317434D01*
X558535Y317615D01*
X558848Y317763D01*
X559143Y317845D01*
X559390Y317911D01*
X559505Y317927D01*
X559587D01*
X559669Y317944D01*
X559719D01*
X559751D01*
X559768D01*
X559965D01*
X560162Y317911D01*
D02*
G37*
G36*
X639997Y300708D02*
X639302D01*
Y300013D01*
X638608D01*
Y299319D01*
X637914D01*
Y298625D01*
X636525D01*
Y297236D01*
X635831D01*
Y296542D01*
X619169D01*
Y297236D01*
X618475D01*
Y297931D01*
X617780D01*
Y298625D01*
X617086D01*
Y299319D01*
X616392D01*
Y300013D01*
X615698D01*
Y326395D01*
X619863D01*
Y302096D01*
X620557D01*
Y301402D01*
X621252D01*
Y300708D01*
X633748D01*
Y301402D01*
X634443D01*
Y300708D01*
X635137D01*
Y302790D01*
X635831D01*
Y302096D01*
X636525D01*
Y302790D01*
X635831D01*
Y326395D01*
X639997D01*
Y300708D01*
D02*
G37*
G36*
X573835Y310614D02*
X574016Y310532D01*
X574164Y310433D01*
X574279Y310302D01*
X574361Y310170D01*
X574427Y310072D01*
X574443Y309990D01*
X574460Y309957D01*
X574509Y309497D01*
Y303876D01*
X574493Y303482D01*
X574476Y303235D01*
X574460Y303005D01*
X574427Y302824D01*
X574378Y302677D01*
X574328Y302545D01*
X574295Y302463D01*
X574279Y302414D01*
X574263Y302397D01*
X574180Y302282D01*
X574065Y302184D01*
X573950Y302118D01*
X573852Y302085D01*
X573753Y302052D01*
X573671Y302036D01*
X573605D01*
X573589D01*
X573457Y302052D01*
X573342Y302069D01*
X573145Y302151D01*
X572997Y302282D01*
X572866Y302414D01*
X572783Y302545D01*
X572734Y302677D01*
X572701Y302759D01*
X572685Y302792D01*
X572553Y303334D01*
X572520Y303400D01*
X572438Y303449D01*
X572340Y303482D01*
X572241Y303515D01*
X572142D01*
X572044Y303531D01*
X571978D01*
X571962D01*
X560507D01*
X560310D01*
X560129Y303515D01*
X559965Y303482D01*
X559817Y303465D01*
X559702Y303433D01*
X559620Y303400D01*
X559571Y303383D01*
X559554D01*
X559488Y303350D01*
X559423Y303301D01*
X559374Y303268D01*
X559357Y303252D01*
X559291Y303186D01*
X559209Y303088D01*
X559143Y302989D01*
X559110Y302972D01*
Y302956D01*
X559078Y302907D01*
X559028Y302841D01*
X558979Y302775D01*
X558963Y302759D01*
Y302742D01*
X557204D01*
X557188Y302989D01*
X557171Y303202D01*
Y303350D01*
X557155Y303482D01*
Y303679D01*
X557171Y304139D01*
X557204Y304566D01*
X557253Y304961D01*
X557319Y305306D01*
X557352Y305454D01*
X557385Y305602D01*
X557401Y305717D01*
X557434Y305816D01*
X557451Y305898D01*
X557467Y305963D01*
X557484Y305996D01*
Y306013D01*
X557549Y306210D01*
X557615Y306391D01*
X557681Y306571D01*
X557747Y306719D01*
X557878Y306966D01*
X558009Y307180D01*
X558125Y307311D01*
X558223Y307426D01*
X558289Y307475D01*
X558305Y307492D01*
X558568Y307837D01*
X558831Y308133D01*
X559127Y308379D01*
X559423Y308609D01*
X559719Y308790D01*
X560031Y308938D01*
X560327Y309069D01*
X560606Y309168D01*
X560885Y309250D01*
X561132Y309316D01*
X561362Y309349D01*
X561559Y309382D01*
X561707Y309398D01*
X561838Y309415D01*
X561904D01*
X561937D01*
X572060D01*
X572225D01*
X572356Y309431D01*
X572455D01*
X572520Y309447D01*
X572570D01*
X572586Y309464D01*
X572603D01*
X572734Y309940D01*
X572783Y310072D01*
X572833Y310170D01*
X572964Y310351D01*
X573112Y310483D01*
X573260Y310565D01*
X573408Y310614D01*
X573523Y310631D01*
X573589Y310647D01*
X573622D01*
X573835Y310614D01*
D02*
G37*
G36*
X561838Y302989D02*
X562036Y302972D01*
X562397Y302890D01*
X562710Y302759D01*
X562989Y302611D01*
X563203Y302463D01*
X563383Y302348D01*
X563433Y302282D01*
X563482Y302249D01*
X563498Y302233D01*
X563515Y302216D01*
X563646Y302069D01*
X563778Y301904D01*
X563975Y301592D01*
X564106Y301263D01*
X564205Y300968D01*
X564271Y300705D01*
X564287Y300590D01*
Y300491D01*
X564304Y300425D01*
Y300310D01*
X564287Y300096D01*
X564271Y299883D01*
X564172Y299505D01*
X564024Y299176D01*
X563876Y298880D01*
X563712Y298650D01*
X563630Y298552D01*
X563564Y298470D01*
X563515Y298404D01*
X563465Y298354D01*
X563449Y298338D01*
X563433Y298322D01*
X563268Y298174D01*
X563104Y298059D01*
X562923Y297944D01*
X562759Y297845D01*
X562414Y297697D01*
X562085Y297599D01*
X561806Y297549D01*
X561691Y297533D01*
X561576Y297516D01*
X561493Y297500D01*
X561428D01*
X561395D01*
X561378D01*
X561017Y297516D01*
X560672Y297582D01*
X560359Y297648D01*
X560097Y297747D01*
X559866Y297829D01*
X559686Y297911D01*
X559620Y297927D01*
X559571Y297960D01*
X559554Y297977D01*
X559538D01*
X559242Y298174D01*
X558996Y298387D01*
X558798Y298585D01*
X558618Y298782D01*
X558503Y298963D01*
X558404Y299094D01*
X558355Y299193D01*
X558338Y299226D01*
X558190Y299439D01*
X558059Y299653D01*
X557812Y300129D01*
X557631Y300622D01*
X557484Y301099D01*
X557434Y301313D01*
X557385Y301526D01*
X557352Y301707D01*
X557319Y301855D01*
X557303Y301986D01*
X557286Y302085D01*
X557270Y302151D01*
Y302167D01*
X559028D01*
X559252Y301347D01*
X559374Y301576D01*
X559505Y301789D01*
X559636Y301986D01*
X559768Y302134D01*
X559883Y302249D01*
X559965Y302348D01*
X560031Y302397D01*
X560047Y302414D01*
X560327Y302611D01*
X560606Y302759D01*
X560869Y302857D01*
X561115Y302940D01*
X561329Y302972D01*
X561493Y302989D01*
X561559Y303005D01*
X561609D01*
X561625D01*
X561641D01*
X561838Y302989D01*
D02*
G37*
G36*
X647634Y288905D02*
X642774D01*
Y293071D01*
X647634D01*
Y288905D01*
D02*
G37*
G36*
X639997D02*
X615698D01*
Y293071D01*
X639997D01*
Y288905D01*
D02*
G37*
G36*
X651105Y282657D02*
X649716D01*
Y281963D01*
X648328D01*
Y281268D01*
X646939D01*
Y280574D01*
X645551D01*
Y279880D01*
X644856D01*
Y280574D01*
X644162D01*
Y279880D01*
X643468D01*
Y279186D01*
X642774D01*
Y278491D01*
X641385D01*
Y277797D01*
X640691D01*
Y278491D01*
X639997D01*
Y277103D01*
X638608D01*
Y276409D01*
X637220D01*
Y275714D01*
X635831D01*
Y275020D01*
X634443D01*
Y274326D01*
X633748D01*
Y275020D01*
X633054D01*
Y274326D01*
X632360D01*
Y273631D01*
X631665D01*
Y272937D01*
X630277D01*
Y272243D01*
X629583D01*
Y272937D01*
X628889D01*
Y271549D01*
X627500D01*
Y270854D01*
X626111D01*
Y270160D01*
X624723D01*
Y269466D01*
X623334D01*
Y268772D01*
X622640D01*
Y269466D01*
X621946D01*
Y268772D01*
X621252D01*
Y268077D01*
X620557D01*
Y267383D01*
X619169D01*
Y265995D01*
X621252D01*
Y265300D01*
X622640D01*
Y264606D01*
X624029D01*
Y263912D01*
X625417D01*
Y263218D01*
X626806D01*
Y262523D01*
X628194D01*
Y261829D01*
X629583D01*
Y261135D01*
X630277D01*
Y260441D01*
X632360D01*
Y259746D01*
X633748D01*
Y259052D01*
X635137D01*
Y257663D01*
X635831D01*
Y258358D01*
X636525D01*
Y257663D01*
X637914D01*
Y256969D01*
X639302D01*
Y256275D01*
X640691D01*
Y255581D01*
X641385D01*
Y254886D01*
X643468D01*
Y254192D01*
X644856D01*
Y253498D01*
X646245D01*
Y252804D01*
X647634D01*
Y252110D01*
X649022D01*
Y251415D01*
X650411D01*
Y250721D01*
X651105D01*
Y245167D01*
X650411D01*
Y246555D01*
X649716D01*
Y245861D01*
X649022D01*
Y246555D01*
X647634D01*
Y247250D01*
X646245D01*
Y247944D01*
X644856D01*
Y248638D01*
X643468D01*
Y249332D01*
X642774D01*
Y250027D01*
X640691D01*
Y250721D01*
X639302D01*
Y252110D01*
X638608D01*
Y251415D01*
X637914D01*
Y252110D01*
X636525D01*
Y252804D01*
X635137D01*
Y253498D01*
X633748D01*
Y254192D01*
X632360D01*
Y254886D01*
X631665D01*
Y255581D01*
X629583D01*
Y256275D01*
X628194D01*
Y257663D01*
X627500D01*
Y256969D01*
X626806D01*
Y257663D01*
X625417D01*
Y258358D01*
X624029D01*
Y259052D01*
X622640D01*
Y259746D01*
X621252D01*
Y260441D01*
X620557D01*
Y261135D01*
X618475D01*
Y261829D01*
X617086D01*
Y263218D01*
X616392D01*
Y262523D01*
X615698D01*
Y270160D01*
X616392D01*
Y270854D01*
X617086D01*
Y271549D01*
X618475D01*
Y272243D01*
X619863D01*
Y272937D01*
X621252D01*
Y273631D01*
X622640D01*
Y274326D01*
X624029D01*
Y275020D01*
X625417D01*
Y275714D01*
X627500D01*
Y276409D01*
X628194D01*
Y277103D01*
X629583D01*
Y277797D01*
X630971D01*
Y278491D01*
X632360D01*
Y279186D01*
X633748D01*
Y279880D01*
X635137D01*
Y280574D01*
X636525D01*
Y281268D01*
X638608D01*
Y281963D01*
X639302D01*
Y282657D01*
X640691D01*
Y283351D01*
X642079D01*
Y284045D01*
X643468D01*
Y284740D01*
X644856D01*
Y285434D01*
X646245D01*
Y286128D01*
X647634D01*
Y286822D01*
X649716D01*
Y287517D01*
X650411D01*
Y288211D01*
X651105D01*
Y282657D01*
D02*
G37*
G36*
Y238918D02*
X621252D01*
Y238224D01*
X620557D01*
Y238918D01*
X619863D01*
Y238224D01*
X620557D01*
Y237530D01*
X619863D01*
Y209760D01*
X621252D01*
Y209065D01*
X621946D01*
Y208371D01*
X651105D01*
Y204206D01*
X619863D01*
Y204900D01*
X619169D01*
Y205594D01*
X618475D01*
Y206288D01*
X617780D01*
Y206983D01*
X617086D01*
Y207677D01*
X616392D01*
Y208371D01*
X615698D01*
Y238918D01*
X616392D01*
Y240307D01*
X617780D01*
Y241696D01*
X618475D01*
Y242390D01*
X619169D01*
Y243084D01*
X620557D01*
Y243778D01*
X651105D01*
Y238918D01*
D02*
G37*
G36*
X671933Y168798D02*
X669850D01*
Y554112D01*
X671933D01*
Y168798D01*
D02*
G37*
G36*
X584456D02*
X582373D01*
Y554112D01*
X584456D01*
Y168798D01*
D02*
G37*
%LPC*%
G36*
X563058Y505767D02*
X563014D01*
X562965Y505761D01*
X562900Y505756D01*
X562818Y505745D01*
X562725Y505734D01*
X562621Y505712D01*
X562507Y505685D01*
X562387Y505652D01*
X562261Y505608D01*
X562130Y505554D01*
X561999Y505494D01*
X561868Y505417D01*
X561737Y505330D01*
X561611Y505232D01*
X561491Y505117D01*
X561485Y505112D01*
X561464Y505090D01*
X561436Y505051D01*
X561393Y504997D01*
X561349Y504926D01*
X561294Y504844D01*
X561240Y504746D01*
X561180Y504636D01*
X561119Y504505D01*
X561065Y504363D01*
X561010Y504205D01*
X560967Y504030D01*
X560928Y503845D01*
X560896Y503643D01*
X560874Y503424D01*
X560868Y503189D01*
Y503184D01*
Y503173D01*
Y503157D01*
Y503135D01*
Y503107D01*
X560874Y503069D01*
X560879Y502982D01*
X560885Y502878D01*
X560901Y502758D01*
X560917Y502627D01*
X560945Y502479D01*
X560978Y502326D01*
X561016Y502174D01*
X561065Y502015D01*
X561125Y501851D01*
X561196Y501698D01*
X561278Y501545D01*
X561371Y501404D01*
X561480Y501272D01*
X561485Y501267D01*
X561507Y501245D01*
X561545Y501212D01*
X561589Y501169D01*
X561655Y501119D01*
X561726Y501065D01*
X561813Y501005D01*
X561911Y500945D01*
X562015Y500879D01*
X562135Y500819D01*
X562266Y500765D01*
X562408Y500715D01*
X562556Y500672D01*
X562714Y500639D01*
X562883Y500617D01*
X563058Y500612D01*
X563102D01*
X563135Y500617D01*
X563178D01*
X563222Y500623D01*
X563277Y500628D01*
X563337Y500634D01*
X563468Y500655D01*
X563610Y500683D01*
X563763Y500726D01*
X563915Y500781D01*
X563910Y500786D01*
X563899Y500792D01*
X563877Y500808D01*
X563844Y500825D01*
X563812Y500846D01*
X563768Y500868D01*
X563719Y500896D01*
X563659Y500923D01*
X563533Y500983D01*
X563391Y501043D01*
X563238Y501098D01*
X563074Y501147D01*
X563282Y501758D01*
X563293D01*
X563315Y501748D01*
X563353Y501737D01*
X563402Y501720D01*
X563468Y501698D01*
X563539Y501671D01*
X563621Y501644D01*
X563708Y501606D01*
X563801Y501567D01*
X563899Y501518D01*
X564101Y501414D01*
X564303Y501289D01*
X564396Y501223D01*
X564489Y501147D01*
X564500Y501152D01*
X564522Y501180D01*
X564560Y501218D01*
X564604Y501272D01*
X564664Y501349D01*
X564724Y501436D01*
X564795Y501540D01*
X564866Y501660D01*
X564931Y501797D01*
X565002Y501944D01*
X565062Y502113D01*
X565122Y502299D01*
X565166Y502496D01*
X565204Y502709D01*
X565226Y502943D01*
X565237Y503189D01*
Y503200D01*
Y503222D01*
Y503266D01*
X565232Y503320D01*
Y503386D01*
X565221Y503468D01*
X565215Y503555D01*
X565204Y503648D01*
X565188Y503752D01*
X565172Y503861D01*
X565122Y504090D01*
X565095Y504205D01*
X565057Y504320D01*
X565019Y504434D01*
X564969Y504544D01*
X564964Y504549D01*
X564959Y504571D01*
X564942Y504598D01*
X564920Y504642D01*
X564893Y504686D01*
X564860Y504746D01*
X564822Y504806D01*
X564773Y504871D01*
X564724Y504942D01*
X564669Y505019D01*
X564604Y505095D01*
X564533Y505166D01*
X564462Y505243D01*
X564380Y505314D01*
X564292Y505379D01*
X564199Y505445D01*
X564194Y505450D01*
X564178Y505461D01*
X564150Y505472D01*
X564112Y505494D01*
X564063Y505521D01*
X564003Y505548D01*
X563937Y505576D01*
X563866Y505608D01*
X563784Y505636D01*
X563697Y505663D01*
X563604Y505690D01*
X563506Y505718D01*
X563397Y505740D01*
X563288Y505750D01*
X563173Y505761D01*
X563058Y505767D01*
D02*
G37*
G36*
X632360Y514539D02*
X620557D01*
Y513845D01*
X619863D01*
Y513151D01*
X618475D01*
Y493017D01*
X619169D01*
Y492323D01*
X619863D01*
Y491629D01*
X620557D01*
Y490935D01*
X633054D01*
Y491629D01*
X633748D01*
Y490935D01*
X634443D01*
Y513151D01*
X633054D01*
Y513845D01*
X632360D01*
Y514539D01*
D02*
G37*
G36*
X637220Y460387D02*
X636525D01*
Y459693D01*
X637220D01*
Y460387D01*
D02*
G37*
G36*
X633054Y449973D02*
X619169D01*
Y447891D01*
X618475D01*
Y427757D01*
X617780D01*
Y427063D01*
X618475D01*
Y426368D01*
X632360D01*
Y427063D01*
X633054D01*
Y427757D01*
X633748D01*
Y428451D01*
X634443D01*
Y448585D01*
X633748D01*
Y449279D01*
X633054D01*
Y449973D01*
D02*
G37*
G36*
X637220Y416649D02*
X636525D01*
Y415955D01*
X637220D01*
Y416649D01*
D02*
G37*
G36*
X626111Y411095D02*
X625417D01*
Y410401D01*
X626111D01*
Y411095D01*
D02*
G37*
G36*
X620557Y301402D02*
X619863D01*
Y300708D01*
X620557D01*
Y301402D01*
D02*
G37*
%LPD*%
D10*
X544500Y516000D02*
X575500D01*
Y484000D02*
Y516000D01*
X544500Y484000D02*
X575500D01*
X544500D02*
Y516000D01*
X520000Y179000D02*
Y399000D01*
Y179000D02*
X680000D01*
Y399000D01*
X520000D02*
X680000D01*
X544500Y516000D02*
X575500D01*
Y484000D02*
Y516000D01*
X544500Y484000D02*
X575500D01*
X544500D02*
Y516000D01*
D11*
X585000Y453950D02*
X630000D01*
X585000Y426050D02*
X630000D01*
X585000D02*
Y453950D01*
X630000Y426050D02*
Y453950D01*
X555350Y500000D02*
X564650D01*
X560000Y495350D02*
Y504650D01*
X512000Y515750D02*
X528000D01*
X512000Y484250D02*
Y515750D01*
Y484250D02*
X528000D01*
Y515750D01*
X644000Y502670D02*
X649330Y508000D01*
X644000Y492000D02*
Y508000D01*
Y492000D02*
X676000D01*
Y508000D01*
X644000D02*
X676000D01*
X620750Y492000D02*
Y508000D01*
X589250D02*
X620750D01*
X589250Y492000D02*
Y508000D01*
Y492000D02*
X620750D01*
X607500Y435000D02*
Y445000D01*
X602500Y440000D02*
X612500D01*
X532000Y424250D02*
X548000D01*
Y455750D01*
X532000D02*
X548000D01*
X532000Y424250D02*
Y455750D01*
D12*
X340000Y90000D02*
Y630000D01*
Y90000D02*
X690000D01*
X690000Y630000D02*
X690000Y90000D01*
X340000Y630000D02*
X690000D01*
X499000Y100900D02*
Y623500D01*
X340000Y100900D02*
Y623500D01*
Y100900D02*
X499000D01*
X340000Y623500D02*
X499000D01*
D13*
X553500Y514500D02*
X566500D01*
Y485500D02*
Y514500D01*
X553500Y485500D02*
X566500D01*
X553500D02*
Y514500D01*
D14*
X577500Y456500D02*
X637500D01*
X577500Y423500D02*
X637500D01*
X577500D02*
Y456500D01*
X637500Y423500D02*
Y456500D01*
X508500Y522750D02*
X531500D01*
X508500Y477250D02*
Y522750D01*
Y477250D02*
X531500D01*
Y522750D01*
X635500Y486750D02*
Y513250D01*
Y486750D02*
X684500D01*
Y513250D01*
X635500D02*
X684500D01*
X627750Y488500D02*
Y511500D01*
X582250D02*
X627750D01*
X582250Y488500D02*
Y511500D01*
Y488500D02*
X627750D01*
X528500Y417250D02*
X551500D01*
Y462750D01*
X528500D02*
X551500D01*
X528500Y417250D02*
Y462750D01*
M02*
