G04*
G04 #@! TF.GenerationSoftware,Altium Limited,Altium Designer,18.1.9 (240)*
G04*
G04 Layer_Color=8388736*
%FSLAX25Y25*%
%MOIN*%
G70*
G01*
G75*
%ADD13R,0.03543X0.03150*%
%ADD18R,0.07887X0.04934*%
%ADD19R,0.07493X0.07690*%
%ADD20R,0.04934X0.07887*%
%ADD21R,0.10249X0.06902*%
%ADD22C,0.08477*%
%ADD23C,0.12611*%
G04:AMPARAMS|DCode=24|XSize=126.11mil|YSize=126.11mil|CornerRadius=33.53mil|HoleSize=0mil|Usage=FLASHONLY|Rotation=90.000|XOffset=0mil|YOffset=0mil|HoleType=Round|Shape=RoundedRectangle|*
%AMROUNDEDRECTD24*
21,1,0.12611,0.05906,0,0,90.0*
21,1,0.05906,0.12611,0,0,90.0*
1,1,0.06706,0.02953,0.02953*
1,1,0.06706,0.02953,-0.02953*
1,1,0.06706,-0.02953,-0.02953*
1,1,0.06706,-0.02953,0.02953*
%
%ADD24ROUNDEDRECTD24*%
%ADD25C,0.00800*%
%ADD26C,0.06800*%
D13*
X216535Y200591D02*
D03*
Y193110D02*
D03*
X224410Y196850D02*
D03*
D18*
X204724Y190945D02*
D03*
Y202756D02*
D03*
X212598Y179134D02*
D03*
Y167323D02*
D03*
D19*
X264370Y196850D02*
D03*
X255315D02*
D03*
D20*
X232283D02*
D03*
X244094D02*
D03*
D21*
X233169Y173228D02*
D03*
X245177D02*
D03*
D22*
X236221Y141732D02*
D03*
X212598Y133858D02*
D03*
Y85827D02*
D03*
X259842D02*
D03*
Y133858D02*
D03*
D23*
X154095Y165709D02*
D03*
X177165Y119724D02*
D03*
Y142717D02*
D03*
X154095D02*
D03*
Y119724D02*
D03*
D24*
X177165Y165709D02*
D03*
D25*
X165630Y54016D02*
D03*
X165551Y231417D02*
D03*
D26*
X236221Y232283D02*
D03*
Y51181D02*
D03*
M02*
