G04*
G04 #@! TF.GenerationSoftware,Altium Limited,Altium Designer,18.1.9 (240)*
G04*
G04 Layer_Color=65535*
%FSLAX25Y25*%
%MOIN*%
G70*
G01*
G75*
%ADD10C,0.00787*%
%ADD11C,0.00394*%
%ADD12C,0.01000*%
D10*
X237008Y159449D02*
G03*
X236221Y159449I-394J0D01*
G01*
D02*
G03*
X237008Y159449I394J0D01*
G01*
X223031Y200394D02*
Y202559D01*
Y191142D02*
Y193307D01*
X220472Y202559D02*
X223031D01*
X220472Y191142D02*
X223031D01*
X201969Y196850D02*
X207480D01*
X250590Y192028D02*
X264370D01*
X250590D02*
Y201673D01*
X264370D01*
X238189Y194095D02*
Y199606D01*
X230315Y177854D02*
Y178740D01*
X248031Y177854D02*
Y178740D01*
X230315Y167717D02*
Y168602D01*
X248031Y167717D02*
Y168602D01*
X230315Y178740D02*
X248031D01*
X230315Y167717D02*
X248031D01*
X238280Y160870D02*
Y165870D01*
Y163370D02*
X240780Y160870D01*
X238280Y163370D02*
X240780Y165870D01*
Y160870D02*
Y165870D01*
X209842Y173228D02*
X215354D01*
D11*
X204724Y70472D02*
Y157087D01*
Y70472D02*
X267717D01*
Y157087D01*
X204724D02*
X267717D01*
D12*
X133858Y245630D02*
X196457D01*
Y39724D02*
Y245630D01*
X133858Y39724D02*
Y245630D01*
Y39724D02*
X196457D01*
X235236Y187100D02*
Y181102D01*
X238235D01*
X239235Y182102D01*
Y186101D01*
X238235Y187100D01*
X235236D01*
X241234Y181102D02*
X243234D01*
X242234D01*
Y187100D01*
X241234Y186101D01*
X200787Y237205D02*
Y243203D01*
X203786D01*
X204786Y242203D01*
Y240204D01*
X203786Y239204D01*
X200787D01*
X206785Y237205D02*
X208785D01*
X207785D01*
Y243203D01*
X206785Y242203D01*
X233268Y203740D02*
Y209738D01*
X236267D01*
X237266Y208738D01*
Y206739D01*
X236267Y205739D01*
X233268D01*
X235267D02*
X237266Y203740D01*
X239266Y208738D02*
X240265Y209738D01*
X242265D01*
X243265Y208738D01*
Y207739D01*
X242265Y206739D01*
X241265D01*
X242265D01*
X243265Y205739D01*
Y204740D01*
X242265Y203740D01*
X240265D01*
X239266Y204740D01*
X253937Y210722D02*
Y204724D01*
X256936D01*
X257936Y205724D01*
Y209723D01*
X256936Y210722D01*
X253937D01*
X263934Y204724D02*
X259935D01*
X263934Y208723D01*
Y209723D01*
X262934Y210722D01*
X260935D01*
X259935Y209723D01*
X200787Y207677D02*
Y213581D01*
X203739D01*
X204723Y212597D01*
Y210629D01*
X203739Y209645D01*
X200787D01*
X202755D02*
X204723Y207677D01*
X210627D02*
X206691D01*
X210627Y211613D01*
Y212597D01*
X209643Y213581D01*
X207675D01*
X206691Y212597D01*
X198819Y170276D02*
Y176179D01*
X201771D01*
X202755Y175195D01*
Y173227D01*
X201771Y172243D01*
X198819D01*
X200787D02*
X202755Y170276D01*
X204722D02*
X206690D01*
X205706D01*
Y176179D01*
X204722Y175195D01*
X220534Y207693D02*
Y211691D01*
X219534Y212691D01*
X217535D01*
X216535Y211691D01*
Y207693D01*
X217535Y206693D01*
X219534D01*
X218535Y208692D02*
X220534Y206693D01*
X219534D02*
X220534Y207693D01*
X222533Y206693D02*
X224533D01*
X223533D01*
Y212691D01*
X222533Y211691D01*
X257874Y166337D02*
Y160433D01*
Y162401D01*
X261810Y166337D01*
X258858Y163385D01*
X261810Y160433D01*
X263778D02*
X265745D01*
X264761D01*
Y166337D01*
X263778Y165353D01*
M02*
